<svg width="304" height="551" viewBox="0 0 304 551" fill="none" xmlns="http://www.w3.org/2000/svg">
<path d="M65.5012 537.213L78.1193 537.212L84.1219 492.301L65.4986 492.302L65.5012 537.213Z" fill="#C7A9AE"/>
<path d="M65.0571 549.36L103.86 549.359V548.906C103.859 541.209 97.098 534.97 88.7569 534.969H88.7559L81.6679 530.008L68.4436 534.97H65.0564L65.0571 549.36Z" fill="#2F2E41"/>
<path d="M142.614 537.213L155.232 537.212L161.235 492.301L142.612 492.302L142.614 537.213Z" fill="#C7A9AE"/>
<path d="M142.17 549.36L180.973 549.359V548.906C180.972 541.209 174.211 534.97 165.87 534.969H165.869L158.781 530.008L145.556 534.97H142.169L142.17 549.36Z" fill="#2F2E41"/>
<path d="M54.3543 251.501L169.749 248.541L169.009 308.613L162.921 378.834C162.921 378.834 177.127 430.329 164.951 481.824L163.936 521.148L131.468 519.275C131.468 519.275 125.887 442.033 132.989 413.009L111.682 308.145L91.389 410.2C91.389 410.2 94.4332 469.184 86.3154 492.592V514.653H63.3583C63.3583 514.653 38.6274 437.351 56.891 398.027L54.3543 251.501Z" fill="#2F2E41"/>
<path d="M137.352 76.9347C137.352 76.9347 134.238 69.7252 131.913 66.507C115.639 66.507 113.571 67.5382 99.3636 66.507L59.9284 261.877C59.9284 261.877 38.2479 278.736 62.055 278.736C85.8619 278.736 120.189 272.605 129.601 277.204C139.013 281.802 168.911 274.649 168.911 274.649L137.352 76.9347Z" fill="#B8E6CD"/>
<path d="M100.014 66.1195L85.4143 80.4521L75.7723 80.5698C66.8548 80.6787 59.7074 87.4133 59.7767 95.6422L62.8 177.743C62.8 177.743 35.4785 255.847 53.7492 258.912L50.4273 270.664L85.4755 290.588C85.4755 290.588 96.105 238.121 97.7659 226.371C99.4269 214.619 107.681 148.399 107.681 148.399C107.681 148.399 106.071 93.9242 104.963 88.8782L100.014 66.1195Z" fill="#2F2E41"/>
<path d="M132.37 66.717L125.172 100.946L143.443 191.374C143.443 191.374 139.013 275.16 152.855 283.334L174.667 278.124L173.006 261.775C173.006 261.775 175 257.79 173.894 242.463C172.786 227.137 166.261 199.197 166.261 199.197L175.925 97.37C175.925 97.37 151.747 76.4235 141.228 78.9784L132.37 66.717Z" fill="#2F2E41"/>
<path d="M13.0622 259.172L15.3134 231.3L32.7474 230.266L29.2312 259.655C29.7947 260.393 30.2532 261.218 30.575 262.121C32.3254 267.028 29.4329 272.316 24.1144 273.932C18.796 275.547 13.0655 272.877 11.3151 267.969C10.1988 264.839 10.9769 261.559 13.0622 259.172Z" fill="#C7A9AE"/>
<path d="M80.195 80.9044L71.0106 81.0447C64.2219 81.1487 58.2224 85.1449 55.979 91.0583L21.5619 181.778L17.9894 198.694C17.9894 198.694 1.47916 235.224 7.66932 240.75L10.6205 250.925L32.5131 250.59L32.3635 242.254C32.3635 242.254 39.0485 241.675 39.0168 234.332C39.0168 234.332 56.3421 206.795 51.7576 198.178L63.5606 177.048L80.195 80.9044Z" fill="#2F2E41"/>
<path d="M295.229 223.776L273.01 204.781L259.48 214.978L283.745 234.29C283.877 235.185 284.15 236.078 284.581 236.94C286.92 241.634 292.942 243.689 298.028 241.529C303.115 239.37 305.341 233.815 303.001 229.121C301.508 226.127 298.518 224.214 295.229 223.776Z" fill="#C7A9AE"/>
<path d="M161.89 87.2534L150.745 126.977L189.772 176.468L202.478 189.1C202.478 189.1 257.204 228.552 265.69 227.193L276.337 230.987L288.945 214.468L281.558 209.667C281.558 209.667 284.99 204.343 278.541 200.038C278.541 200.038 232.17 165.278 221.925 163.619L210.379 142.369L175.097 97.0159L161.89 87.2534Z" fill="#2F2E41"/>
<path d="M135.336 57.9269C135.184 58.0387 135.041 58.1231 134.889 58.2075C133.71 58.9296 132.481 59.5772 131.191 60.1296C131.17 60.1492 131.139 60.158 131.109 60.1678C128.782 61.1804 126.272 61.9398 123.62 62.3901C120.907 62.8493 118.215 62.971 115.593 62.7738C102.09 61.7897 90.4652 52.5727 87.8844 39.6993C87.0208 35.4049 87.2639 31.1668 88.412 27.2196C91.39 17.0182 100.463 8.78584 112.474 6.73249C129.128 3.89147 145.121 14.0459 148.2 29.4135C150.477 40.7775 145.05 51.8133 135.336 57.9269Z" fill="#C7A9AE"/>
<path d="M99.3646 57.2352L101.215 49.3517C101.215 49.3517 96.1791 45.3072 101.215 41.5464L103.955 39.9036H108.14L110.842 27.1948L128.058 26.1358C128.058 26.1358 145.273 22.9586 147.569 17.6633C147.569 17.6633 141.83 16.6042 142.977 12.3679C142.977 12.3679 129.205 -3.51796 116.58 0.718246C103.955 4.95455 99.3646 9.19076 99.3646 9.19076C99.3646 9.19076 78.7057 6.01361 78.7057 29.3129C78.7057 52.6123 99.3646 57.2352 99.3646 57.2352Z" fill="#2F2E41"/>
<path d="M288.063 260.639H253.38C249.619 260.639 246.56 257.816 246.56 254.346V193.191C246.56 189.722 249.619 186.898 253.38 186.898H288.063C291.824 186.898 294.883 189.722 294.883 193.191V254.346C294.883 257.816 291.824 260.639 288.063 260.639Z" fill="#3F3D56"/>
<path d="M294.882 209.393C294.724 209.393 294.594 209.512 294.594 209.66V218.178C294.594 218.325 294.724 218.445 294.882 218.445C295.041 218.445 295.17 218.325 295.17 218.178V209.66C295.17 209.512 295.041 209.393 294.882 209.393Z" fill="#3F3D56"/>
<path d="M294.234 193.191V254.345C294.234 257.365 291.687 259.836 288.466 260.027H288.464C288.416 260.03 288.369 260.033 288.319 260.034C288.234 260.038 288.149 260.04 288.062 260.04C288.062 260.04 287.745 260.018 287.165 259.978C286.58 259.939 285.728 259.878 284.665 259.799C284.345 259.777 284.009 259.752 283.655 259.725C282.948 259.672 282.172 259.614 281.34 259.547C281.008 259.522 280.664 259.493 280.314 259.466C278.522 259.323 276.516 259.157 274.4 258.968C274.042 258.937 273.681 258.905 273.318 258.872C273.223 258.862 273.126 258.854 273.029 258.846C271.52 258.708 269.97 258.56 268.413 258.403C268.317 258.394 268.22 258.384 268.124 258.376C265.443 258.103 262.751 257.806 260.233 257.487C258.296 257.241 256.461 256.983 254.813 256.715C254.277 256.628 253.761 256.54 253.267 256.451C253.171 256.434 253.074 256.416 252.979 256.398C249.493 255.753 247.209 255.058 247.209 254.345V193.191C247.209 190.045 249.972 187.496 253.38 187.496H257.064C257.653 187.496 258.125 187.92 258.176 188.462C258.181 188.498 258.185 188.534 258.193 188.57C258.299 189.114 258.84 189.493 259.439 189.493H282.003C282.603 189.493 283.144 189.114 283.251 188.57C283.258 188.534 283.262 188.498 283.266 188.462C283.317 187.92 283.79 187.496 284.379 187.496H288.062C291.471 187.496 294.234 190.045 294.234 193.191Z" fill="#B8E6CD"/>
<path d="M246.415 203.004C246.257 203.004 246.127 203.123 246.127 203.27V205.4C246.127 205.547 246.257 205.666 246.415 205.666C246.574 205.666 246.703 205.547 246.703 205.4V203.27C246.703 203.123 246.574 203.004 246.415 203.004Z" fill="#3F3D56"/>
<path d="M246.415 209.393C246.257 209.393 246.127 209.512 246.127 209.66V213.785C246.127 213.933 246.257 214.052 246.415 214.052C246.574 214.052 246.703 213.933 246.703 213.785V209.66C246.703 209.512 246.574 209.393 246.415 209.393Z" fill="#3F3D56"/>
<path d="M246.415 215.25C246.257 215.25 246.127 215.369 246.127 215.516V219.643C246.127 219.789 246.257 219.909 246.415 219.909C246.574 219.909 246.703 219.789 246.703 219.643V215.516C246.703 215.369 246.574 215.25 246.415 215.25Z" fill="#3F3D56"/>
<path d="M256.657 188.43H251.753C251.554 188.43 251.393 188.578 251.393 188.762C251.393 188.946 251.554 189.095 251.753 189.095H256.657C256.857 189.095 257.018 188.946 257.018 188.762C257.018 188.578 256.857 188.43 256.657 188.43Z" fill="#3F3D56"/>
<path d="M285.29 189.095C285.609 189.095 285.867 188.856 285.867 188.562C285.867 188.269 285.609 188.03 285.29 188.03C284.972 188.03 284.713 188.269 284.713 188.562C284.713 188.856 284.972 189.095 285.29 189.095Z" fill="#3F3D56"/>
<path d="M286.877 189.095C287.196 189.095 287.454 188.856 287.454 188.562C287.454 188.269 287.196 188.03 286.877 188.03C286.559 188.03 286.3 188.269 286.3 188.562C286.3 188.856 286.559 189.095 286.877 189.095Z" fill="#3F3D56"/>
<path d="M288.464 189.095C288.783 189.095 289.041 188.856 289.041 188.562C289.041 188.269 288.783 188.03 288.464 188.03C288.145 188.03 287.887 188.269 287.887 188.562C287.887 188.856 288.145 189.095 288.464 189.095Z" fill="#3F3D56"/>
<path d="M271.488 241.203C281.575 241.203 289.752 233.657 289.752 224.349C289.752 215.041 281.575 207.496 271.488 207.496C261.402 207.496 253.225 215.041 253.225 224.349C253.225 233.657 261.402 241.203 271.488 241.203Z" fill="white"/>
<path d="M275.963 218.944C274.501 217.317 272.063 216.359 269.796 216.969C267.721 217.529 265.993 219.344 266.187 221.413C266.277 222.372 266.702 223.296 267.431 223.992C268.254 224.78 269.303 225.052 270.455 225.142C271.683 225.237 272.739 225.406 273.557 226.34C274.268 227.153 274.491 228.231 274.082 229.213C273.114 231.548 269.687 231.82 268.254 229.72C267.692 228.896 266.269 229.656 266.835 230.485C268.003 232.198 270.378 233.139 272.512 232.5C274.589 231.878 276.114 229.891 275.92 227.859C275.721 225.749 273.9 224.011 271.638 223.725C270.446 223.574 269.2 223.695 268.394 222.711C267.764 221.942 267.629 220.879 268.105 220.017C268.686 218.966 269.949 218.305 271.215 218.303C272.652 218.3 273.907 219.022 274.8 220.017C275.476 220.769 276.634 219.691 275.963 218.944Z" fill="#B8E6CD"/>
<path d="M269.567 213.922L268.778 235.135C268.753 235.786 269.849 235.785 269.873 235.135L270.663 213.922C270.687 213.27 269.591 213.271 269.567 213.922Z" fill="#B8E6CD"/>
<path d="M272.123 213.922L271.333 235.135C271.309 235.786 272.405 235.785 272.428 235.135L273.219 213.922C273.243 213.27 272.147 213.271 272.123 213.922Z" fill="#B8E6CD"/>
<path d="M16.0749 532.864C13.6733 533.002 12.3461 530.249 14.163 528.645L14.3438 527.982C14.32 527.929 14.2961 527.875 14.272 527.822C11.8433 522.478 3.61207 522.515 1.20408 527.867C-0.933284 532.617 -3.65439 537.375 -4.32449 542.398C-4.62481 544.614 -4.48969 546.874 -3.95654 549.049C-8.96461 538.954 -11.6 527.932 -11.6 516.846C-11.6 514.06 -11.4348 511.276 -11.097 508.497C-10.8191 506.225 -10.4362 503.966 -9.94065 501.728C-7.26025 489.631 -1.45626 478.109 6.91543 468.486C10.94 466.456 14.2961 463.283 16.3234 459.479C17.0517 458.107 17.6223 456.632 17.8926 455.127C17.4347 455.183 16.1657 448.747 16.5111 448.352C15.8728 447.458 14.7305 447.014 14.0334 446.142C10.5665 441.804 5.78994 442.562 3.29648 448.456C-2.03032 450.937 -2.0819 455.051 1.18659 459.008C3.26605 461.525 3.5517 464.931 5.37624 467.626C5.18851 467.848 4.99327 468.063 4.80564 468.285C1.36345 472.358 -1.61366 476.737 -4.12342 481.338C-3.4142 476.225 -4.46134 470.065 -6.24662 466.096C-8.27887 461.572 -12.088 457.762 -15.4424 453.851C-19.4715 449.153 -27.7337 451.203 -28.4436 457.158C-28.4504 457.215 -28.4572 457.273 -28.4637 457.331C-27.9655 457.59 -27.4774 457.866 -27.0006 458.157C-24.2809 459.816 -25.2209 463.707 -28.4433 464.166L-28.5162 464.177C-28.336 465.832 -28.0282 467.474 -27.5777 469.088C-31.881 484.445 -22.5906 490.038 -9.32506 490.289C-9.03222 490.428 -8.74687 490.566 -8.45403 490.698C-9.79805 494.19 -10.8718 497.772 -11.6676 501.402C-12.3809 504.61 -12.8765 507.852 -13.1542 511.109C-13.4997 515.218 -13.4696 519.347 -13.0942 523.449L-13.1167 523.303C-14.0702 518.785 -16.7282 514.566 -20.5875 511.643C-26.3367 507.284 -34.4592 505.68 -40.6615 502.176C-43.6472 500.491 -47.4731 502.67 -46.952 505.864L-46.9266 506.017C-46.003 506.363 -45.1021 506.765 -44.2312 507.216C-43.7329 507.475 -43.2448 507.75 -42.7679 508.041C-40.0484 509.701 -40.9883 513.591 -44.2107 514.05L-44.2837 514.06C-44.3363 514.067 -44.3813 514.075 -44.4338 514.082C-42.8496 517.552 -40.6421 520.774 -37.8791 523.553C-35.1884 536.958 -23.6317 538.23 -11.2697 534.326H-11.2622C-9.91066 539.757 -7.93597 545.065 -5.39813 550.122H15.55C15.6251 549.907 15.6927 549.686 15.7603 549.472C13.8231 549.583 11.8709 549.479 9.96378 549.153C11.5181 547.393 13.0722 545.619 14.6265 543.86C14.6641 543.824 14.6941 543.79 14.7241 543.756C15.5125 542.855 16.3084 541.961 17.0967 541.06L17.0971 541.059C17.1465 538.295 16.7873 535.538 16.0756 532.864H16.0749Z" fill="#F2F2F2"/>
<path d="M250.375 550.18C250.375 550.888 249.759 551.457 248.991 551.457H-45.4537C-46.2209 551.457 -46.8371 550.888 -46.8371 550.18C-46.8371 549.472 -46.2209 548.904 -45.4537 548.904H248.991C249.759 548.904 250.375 549.472 250.375 550.18Z" fill="#CCCCCC"/>
</svg>
