<svg width="30" height="30" viewBox="0 0 30 30" fill="none" xmlns="http://www.w3.org/2000/svg">
<path d="M26.6667 12.5H25.8333V7.49998C25.8333 7.27897 25.7455 7.067 25.5892 6.91072C25.433 6.75444 25.221 6.66665 25 6.66665H4.99999C4.80267 6.66986 4.61061 6.60295 4.458 6.47781C4.3054 6.35268 4.20216 6.17744 4.16666 5.98331V5.68331C4.20216 5.48918 4.3054 5.31395 4.458 5.18881C4.61061 5.06368 4.80267 4.99676 4.99999 4.99998H24.65C24.871 4.99998 25.083 4.91218 25.2392 4.7559C25.3955 4.59962 25.4833 4.38766 25.4833 4.16665C25.4833 3.94563 25.3955 3.73367 25.2392 3.57739C25.083 3.42111 24.871 3.33331 24.65 3.33331H4.99999C4.33695 3.33331 3.70107 3.59671 3.23223 4.06555C2.76338 4.53439 2.49999 5.17027 2.49999 5.83331C2.49414 5.93323 2.49414 6.0334 2.49999 6.13331V23.275C2.50326 23.7237 2.59488 24.1673 2.76961 24.5806C2.94435 24.9939 3.19877 25.3687 3.51836 25.6836C3.83795 25.9986 4.21645 26.2475 4.63224 26.4162C5.04803 26.5848 5.49297 26.6699 5.94166 26.6666H25C25.221 26.6666 25.433 26.5788 25.5892 26.4226C25.7455 26.2663 25.8333 26.0543 25.8333 25.8333V20.8333H26.6667C26.8877 20.8333 27.0996 20.7455 27.2559 20.5892C27.4122 20.433 27.5 20.221 27.5 20V13.3333C27.5 13.1123 27.4122 12.9003 27.2559 12.7441C27.0996 12.5878 26.8877 12.5 26.6667 12.5ZM24.1667 25H5.94166C5.47816 25.0045 5.03164 24.8257 4.69924 24.5027C4.36683 24.1796 4.17542 23.7384 4.16666 23.275V8.23331C4.43716 8.3117 4.71863 8.34548 4.99999 8.33331H24.1667V12.5H18.3333C17.2283 12.5 16.1684 12.939 15.387 13.7204C14.6056 14.5018 14.1667 15.5616 14.1667 16.6666C14.1667 17.7717 14.6056 18.8315 15.387 19.6129C16.1684 20.3943 17.2283 20.8333 18.3333 20.8333H24.1667V25ZM25.8333 19.1666H18.3333C17.6703 19.1666 17.0344 18.9033 16.5656 18.4344C16.0967 17.9656 15.8333 17.3297 15.8333 16.6666C15.8333 16.0036 16.0967 15.3677 16.5656 14.8989C17.0344 14.43 17.6703 14.1666 18.3333 14.1666H25.8333V19.1666Z" fill="#10A133"/>
<path d="M19.175 17.9167C19.8654 17.9167 20.425 17.357 20.425 16.6667C20.425 15.9763 19.8654 15.4167 19.175 15.4167C18.4847 15.4167 17.925 15.9763 17.925 16.6667C17.925 17.357 18.4847 17.9167 19.175 17.9167Z" fill="#10A133"/>
</svg>
