<svg width="61" height="56" viewBox="0 0 61 56" fill="none" xmlns="http://www.w3.org/2000/svg">
<g clip-path="url(#clip0_26_124)">
<path d="M13.8141 21.0002H13.8853C14.5868 21.0002 15.2044 21.3198 15.5806 21.8075L15.5856 21.8145C21.3533 28.8916 25.5086 36.963 27.8034 45.5468L27.9076 46.0018H12.7237C10.0397 37.0465 5.75194 29.2322 0.101816 22.4212L0.236524 22.5892C0.104724 22.4446 0.0245234 22.2663 0.00679234 22.0785C-0.0109387 21.8907 0.0346566 21.7024 0.137399 21.5392L0.134858 21.5438C0.221673 21.3728 0.362165 21.2294 0.538321 21.1321C0.714478 21.0348 0.918269 20.9881 1.12357 20.9978H1.12102L13.8141 21.0002ZM32.8537 32.1582C31.6805 36.5637 30.1687 40.8873 28.3296 45.0965L28.5837 44.4408C26.5733 37.3965 23.5843 31.2155 19.6955 25.6132L19.8684 25.8792C20.73 21.7095 21.2714 16.8678 21.3654 11.9258V11.8488C25.4092 17.6215 29.2573 24.2972 32.4852 31.2738L32.8512 32.1628L32.8537 32.1582ZM36.2138 10.0008C41.2463 16.3008 45.6434 23.4945 49.0391 31.1572L49.3034 31.8292C52.4881 38.9062 54.7171 47.1055 55.5584 55.6735L55.5839 56.0025H40.2322C39.3019 42.1487 33.0274 26.8156 21.4086 10.0032L36.2138 10.0008ZM59.8056 28.0002V28.4038C59.8056 37.2775 58.55 45.8828 56.1964 54.0752L56.3667 53.3752C54.618 40.7285 50.2997 29.2858 43.8896 19.0892L44.1464 19.5302C43.584 13.1223 42.3134 6.78345 40.3542 0.611504L40.5372 1.28117C40.4892 1.12956 40.4812 0.96964 40.5139 0.814639C40.5466 0.659637 40.6191 0.514018 40.7253 0.389838L40.7227 0.392171C40.8187 0.271206 40.9445 0.172829 41.0898 0.105098C41.2352 0.0373674 41.3959 0.0022095 41.5589 0.00250428H41.5971H41.5945H53.8199C54.313 0.00250428 54.768 0.156504 55.1314 0.413171L55.1264 0.410838C55.5027 0.657304 55.7726 1.01743 55.8889 1.42817L55.8914 1.43984C58.3746 9.30317 59.803 18.3378 59.803 27.6782V28.0212V28.0025L59.8056 28.0002Z" fill="url(#paint0_linear_26_124)"/>
</g>
<defs>
<linearGradient id="paint0_linear_26_124" x1="29.9043" y1="0.00250244" x2="29.9043" y2="56.0025" gradientUnits="userSpaceOnUse">
<stop stop-color="#10A133"/>
<stop offset="1" stop-color="#B8E6CD"/>
</linearGradient>
<clipPath id="clip0_26_124">
<rect width="61" height="56" fill="white"/>
</clipPath>
</defs>
</svg>
