<svg width="414" height="447" viewBox="0 0 414 447" fill="none" xmlns="http://www.w3.org/2000/svg">
<g clip-path="url(#clip0_85_262)">
<path d="M262.235 321.339C263.188 321.85 264.276 322.055 265.35 321.926C266.423 321.796 267.432 321.339 268.237 320.615C269.043 319.891 269.608 318.937 269.855 317.88C270.102 316.824 270.02 315.716 269.619 314.709C269.726 314.172 269.803 313.787 269.911 313.251C271.974 311.318 274.566 310.048 277.353 309.603C280.141 309.158 282.997 309.558 285.557 310.753C288.116 311.948 290.261 313.882 291.718 316.308C293.175 318.734 293.876 321.541 293.732 324.37C293.079 340.322 293.864 357.536 283.298 370.396C331.525 330.852 353.514 263.486 338.786 202.897C331.56 192.792 328.188 179.369 331.429 167.205C335.496 171.174 343.424 170.107 342.212 163.237C341.562 160.521 340.89 157.814 340.24 155.099C368.017 144.222 375.269 185.666 342.366 202.54C345.035 214.059 346.497 225.826 346.727 237.651C350.442 226.989 356.626 217.364 364.77 209.568C372.656 202.444 383.083 198.255 392.783 193.475C404.587 187.644 417.687 199.205 413.039 211.547C405.182 210.538 399.622 219.962 406.752 225.027C394.229 246.132 370.215 259.546 345.817 259.759C343.349 283.841 335.795 307.119 323.657 328.041C339.244 304.259 369.406 311.107 393.244 310.093C394.825 309.893 396.431 310.159 397.864 310.859C399.298 311.559 400.497 312.662 401.316 314.034C402.136 315.407 402.539 316.988 402.478 318.587C402.416 320.185 401.893 321.731 400.971 323.036C397.835 322.851 394.688 322.98 391.578 323.419C390.115 323.637 388.755 324.303 387.684 325.327C386.613 326.35 385.884 327.681 385.596 329.137C385.309 330.593 385.477 332.102 386.078 333.458C386.679 334.814 387.683 335.951 388.953 336.712C368.042 355.947 335.64 360.082 310.21 347.808C302.691 357.311 294.208 366.005 284.899 373.748L247.091 355.664C247.156 355.178 247.241 354.684 247.319 354.204C250.713 356.099 254.327 357.57 258.077 358.583C254.044 343.154 249.55 334.118 262.233 321.339H262.235Z" fill="#F2F2F2"/>
<path d="M195.428 284.841C194.737 285.676 193.807 286.277 192.764 286.564C191.721 286.85 190.615 286.808 189.597 286.443C188.578 286.078 187.696 285.408 187.07 284.523C186.444 283.638 186.104 282.581 186.097 281.496C185.796 281.04 185.58 280.713 185.278 280.257C182.641 279.248 179.763 279.052 177.014 279.695C174.266 280.338 171.771 281.79 169.849 283.865C167.928 285.94 166.668 288.543 166.231 291.342C165.794 294.14 166.2 297.005 167.396 299.57C173.998 314.097 179.742 330.336 194.362 338.247C134.833 319.878 89.1441 265.812 80.0077 204.124C82.9022 192.03 80.9782 178.322 73.4042 168.283C71.1298 173.498 63.3869 175.512 61.9261 168.69C61.5072 165.929 61.1125 163.167 60.6935 160.407C30.88 160.847 39.7427 201.974 76.5582 205.148C78.4163 216.826 81.486 228.278 85.7173 239.316C78.2693 230.848 68.9243 224.275 58.4508 220.137C48.4697 216.524 37.2383 216.591 26.4578 215.836C13.3339 214.903 5.54752 230.568 14.4911 240.239C21.389 236.331 30.0809 242.955 25.381 250.344C44.9132 265.15 72.1954 268.484 94.8715 259.447C106.209 280.816 121.956 299.515 141.062 314.297C117.687 298.172 92.3264 315.93 69.869 324.014C68.329 324.427 66.9422 325.281 65.8778 326.472C64.8133 327.663 64.1172 329.138 63.8743 330.719C63.6315 332.3 63.8524 333.918 64.5101 335.375C65.1678 336.832 66.2339 338.065 67.5783 338.925C70.4131 337.567 73.3753 336.495 76.4213 335.725C77.8581 335.372 79.3682 335.475 80.7448 336.017C82.1214 336.56 83.297 337.517 84.1105 338.756C84.924 339.996 85.3356 341.457 85.2888 342.94C85.242 344.424 84.7391 345.856 83.8491 347.042C110.446 356.942 142.009 348.507 160.947 327.514C171.482 333.469 182.606 338.31 194.139 341.958L222.356 310.9C222.113 310.474 221.849 310.049 221.596 309.634C219.165 312.673 216.371 315.403 213.279 317.761C211.214 301.946 211.98 291.875 195.429 284.841L195.428 284.841Z" fill="#F2F2F2"/>
<path d="M202.69 153.603C203.766 153.494 204.782 153.056 205.602 152.348C206.421 151.64 207.004 150.696 207.271 149.644C207.538 148.592 207.476 147.484 207.094 146.469C206.713 145.453 206.029 144.58 205.136 143.968C204.927 143.463 204.777 143.1 204.569 142.595C205.208 139.836 206.653 137.332 208.72 135.403C210.787 133.474 213.38 132.208 216.169 131.768C218.957 131.327 221.813 131.733 224.37 132.932C226.927 134.131 229.069 136.069 230.522 138.498C238.843 152.106 249.06 165.956 247.434 182.544C265.496 122.735 246.32 54.5097 200.428 12.4517C188.814 8.10653 178.557 -1.15083 174.488 -13.062C180.07 -12.0425 186.058 -17.3629 181.235 -22.3888C179.187 -24.2793 177.124 -26.1504 175.076 -28.0411C192.091 -52.6102 221.139 -22.2635 203.201 10.1524C211.817 18.2215 219.569 27.1725 226.331 36.8592C223.49 25.9303 223.276 14.4808 225.705 3.45255C228.293 -6.87324 234.621 -16.1844 240.018 -25.5793C246.576 -37.0241 263.875 -34.7558 266.875 -21.9101C259.791 -18.3515 260.412 -7.41741 269.145 -7.20249C270.476 17.3244 257.995 41.8952 237.859 55.722C249.192 77.0939 255.855 100.644 257.404 124.803C257.128 96.341 285.973 85.1499 305.198 70.9725C306.4 69.9216 307.88 69.2443 309.459 69.0233C311.038 68.8023 312.647 69.0471 314.089 69.7279C315.532 70.4088 316.746 71.4961 317.583 72.8573C318.42 74.2186 318.844 75.7949 318.804 77.3939C316.098 78.9951 313.557 80.8619 311.219 82.967C310.126 83.9662 309.367 85.2802 309.046 86.7292C308.726 88.1781 308.86 89.6909 309.431 91.0603C310.001 92.4297 310.979 93.5885 312.232 94.3781C313.484 95.1676 314.949 95.5491 316.426 95.4703C309.755 123.137 285.155 144.698 257.223 148.736C256.262 160.831 254.051 172.794 250.625 184.431L209.191 190.571C208.975 190.131 208.771 189.674 208.569 189.232C212.44 188.905 216.256 188.104 219.933 186.847C208.012 176.296 199.26 171.308 202.689 153.604L202.69 153.603Z" fill="#F2F2F2"/>
<path d="M244.362 140.272C225.499 140.272 215.268 137.959 211.694 133.022C208.541 128.666 210.655 122.918 213.103 116.262C214.862 111.479 216.855 106.057 216.855 100.691C216.855 74.592 230.044 61.3583 256.053 61.3583C268.994 61.3583 282.889 68.2564 293.223 79.811C302.616 90.3153 307.296 102.887 306.062 114.303C305.05 123.665 300.707 129.822 292.395 133.679L291.909 133.905L291.771 133.386C291.053 130.699 289.838 128.171 288.19 125.934C288.029 129.445 287.147 132.885 285.599 136.037L285.51 136.217L285.319 136.272C275.911 138.961 264.746 139.69 256.071 140.023C251.848 140.188 247.945 140.271 244.362 140.272Z" fill="#2F2E41"/>
<path d="M249.504 176.636C248.781 174.504 247.561 172.575 245.947 171.01C244.332 169.445 242.369 168.289 240.22 167.638C238.071 166.987 235.798 166.859 233.59 167.266C231.382 167.673 229.302 168.602 227.524 169.977L165.477 207.2L146.062 159.664C147.702 157.249 148.538 154.376 148.45 151.455C148.362 148.534 147.354 145.717 145.572 143.406C143.789 141.096 141.323 139.411 138.527 138.594C135.731 137.776 132.75 137.869 130.009 138.857C127.269 139.845 124.911 141.679 123.274 144.096C121.636 146.512 120.803 149.386 120.895 152.307C120.986 155.228 121.997 158.044 123.782 160.353C125.567 162.661 128.035 164.343 130.832 165.157C132.028 178.865 138.679 240.134 161.815 237.907C181.261 236.035 229.555 203.762 244.556 192.572C246.955 190.783 248.727 188.277 249.617 185.413C250.506 182.549 250.466 179.476 249.504 176.636Z" fill="#10A133"/>
<path d="M296.261 447H242.257L233.201 402.07L230.264 447H180.099C180.119 411.716 181.95 376.457 185.587 341.362L186.209 339.237L187.191 335.838L187.813 333.704L198.193 297.933L199.014 295.094H261.523C265.12 298.485 268.438 302.162 271.444 306.089C272.462 307.391 273.526 308.802 274.616 310.321C275.373 311.397 276.157 312.527 276.941 313.712C283.906 324.117 289.112 335.604 292.35 347.71V347.719C292.899 349.789 293.386 351.908 293.81 354.075V354.084C294.188 356.01 294.521 357.963 294.783 359.962C294.981 361.417 295.152 362.891 295.278 364.383C296.03 372.649 295.766 380.975 294.494 389.176L296.261 447Z" fill="#2F2E41"/>
<path d="M9.93593 36.1686C13.443 34.8063 15.5205 31.7174 14.5761 29.2693C13.6317 26.8212 10.023 25.9409 6.51591 27.3032C3.00882 28.6654 0.931368 31.7543 1.87578 34.2025C2.82019 36.6506 6.42884 37.5308 9.93593 36.1686Z" fill="#E6E6E6"/>
<path d="M54.0932 30.4846C57.6002 29.1223 59.6777 26.0334 58.7333 23.5853C57.7889 21.1372 54.1802 20.257 50.6731 21.6192C47.166 22.9815 45.0886 26.0704 46.033 28.5185C46.9774 30.9666 50.5861 31.8469 54.0932 30.4846Z" fill="#3F3D56"/>
<path d="M6.10637 73.9715C9.61347 72.6093 11.6909 69.5204 10.7465 67.0723C9.80211 64.6241 6.19345 63.7439 2.68635 65.1062C-0.820746 66.4684 -2.89822 69.5573 -1.95381 72.0055C-1.00939 74.4536 2.59927 75.3338 6.10637 73.9715Z" fill="#B8E6CD"/>
<path d="M31.8249 60.4041C33.4338 60.022 34.2943 57.8308 33.7469 55.51C33.1995 53.1892 31.4514 51.6176 29.8424 51.9998C28.2335 52.3819 27.373 54.573 27.9204 56.8938C28.4678 59.2146 30.2159 60.7862 31.8249 60.4041Z" fill="#E6E6E6"/>
<path d="M8.56828 54.7372C10.1772 54.355 11.0377 52.1639 10.4903 49.8431C9.94287 47.5223 8.19479 45.9507 6.58585 46.3328C4.97691 46.7149 4.11639 48.9061 4.66382 51.2269C5.21126 53.5477 6.95934 55.1193 8.56828 54.7372Z" fill="#B8E6CD"/>
<path d="M33.2184 28.7407C34.8274 28.3586 35.6879 26.1674 35.1404 23.8466C34.593 21.5258 32.8449 19.9542 31.236 20.3363C29.6271 20.7185 28.7665 22.9096 29.314 25.2304C29.8614 27.5512 31.6095 29.1228 33.2184 28.7407Z" fill="#3F3D56"/>
<path d="M44.6827 224.136C46.3785 222.137 45.4316 218.534 42.5679 216.088C39.7042 213.642 36.0081 213.28 34.3123 215.279C32.6166 217.278 33.5634 220.881 36.4272 223.327C39.2909 225.773 42.987 226.135 44.6827 224.136Z" fill="#E6E6E6"/>
<path d="M18.6764 187.879C20.3721 185.88 19.4253 182.276 16.5616 179.83C13.6979 177.384 10.0017 177.022 8.30598 179.021C6.61026 181.02 7.5571 184.623 10.4208 187.069C13.2845 189.515 16.9807 189.878 18.6764 187.879Z" fill="#3F3D56"/>
<path d="M79.6349 209.516C81.3306 207.517 80.3838 203.913 77.5201 201.467C74.6564 199.021 70.9602 198.659 69.2645 200.658C67.5687 202.657 68.5156 206.26 71.3793 208.706C74.243 211.152 77.9392 211.515 79.6349 209.516Z" fill="#B8E6CD"/>
<path d="M96.9989 209.916C98.7721 208.328 99.317 206.037 98.216 204.799C97.115 203.562 94.7851 203.846 93.0119 205.434C91.2387 207.022 90.6938 209.313 91.7948 210.55C92.8957 211.788 95.2257 211.504 96.9989 209.916Z" fill="#E6E6E6"/>
<path d="M121.865 196.706C123.638 195.118 124.183 192.827 123.082 191.589C121.981 190.351 119.651 190.635 117.878 192.223C116.104 193.811 115.56 196.102 116.66 197.34C117.761 198.578 120.091 198.294 121.865 196.706Z" fill="#3F3D56"/>
<path d="M52.1673 190.35C53.9405 188.762 54.4855 186.471 53.3845 185.234C52.2835 183.996 49.9536 184.28 48.1804 185.868C46.4072 187.456 45.8622 189.747 46.9632 190.985C48.0642 192.222 50.3942 191.938 52.1673 190.35Z" fill="#E6E6E6"/>
<path d="M58.2748 213.57C60.0479 211.982 60.5929 209.691 59.4919 208.453C58.3909 207.215 56.061 207.499 54.2878 209.088C52.5146 210.676 51.9697 212.966 53.0706 214.204C54.1716 215.442 56.5016 215.158 58.2748 213.57Z" fill="#B8E6CD"/>
<path d="M23.7555 204.197C25.5287 202.609 26.0736 200.318 24.9726 199.08C23.8716 197.843 21.5417 198.127 19.7685 199.715C17.9953 201.303 17.4504 203.594 18.5513 204.831C19.6523 206.069 21.9823 205.785 23.7555 204.197Z" fill="#3F3D56"/>
<path d="M228.906 35.2341C231.254 34.0756 231.811 30.3913 230.152 27.0051C228.492 23.6188 225.244 21.8129 222.896 22.9714C220.548 24.1299 219.991 27.8142 221.65 31.2004C223.31 34.5867 226.558 36.3926 228.906 35.2341Z" fill="#3F3D56"/>
<path d="M195.024 13.0553C197.28 12.3048 198.687 10.4197 198.167 8.84493C197.646 7.27015 195.396 6.60197 193.14 7.35251C190.884 8.10306 189.477 9.98812 189.997 11.5629C190.517 13.1377 192.768 13.8058 195.024 13.0553Z" fill="#E6E6E6"/>
<path d="M226.579 11.6741C228.835 10.9236 230.242 9.03852 229.722 7.46374C229.202 5.88896 226.951 5.22079 224.695 5.97134C222.439 6.72189 221.032 8.60694 221.552 10.1817C222.073 11.7565 224.323 12.4247 226.579 11.6741Z" fill="#3F3D56"/>
<path d="M235.239 147.538L264.99 146L278.809 167.91C278.809 167.91 304.808 172.272 303.006 203.015C301.204 233.758 271.372 260.735 271.372 260.735L272.647 276.744L270.433 283.094L270.717 286.66L273.738 290.436L274.049 294.341L271.372 300.52L275.013 306.436L198.478 298.995L195.68 288.765L199.762 283.271L197.482 276.106L200.91 269.214L202.698 247.323C202.698 247.323 183.14 217.839 205.592 195.632L214.603 180.261L224.685 167.917L235.239 147.538Z" fill="#10A133"/>
<path d="M250.03 141.352C267.44 141.352 281.554 127.189 281.554 109.719C281.554 92.2485 267.44 78.086 250.03 78.086C232.619 78.086 218.505 92.2485 218.505 109.719C218.505 127.189 232.619 141.352 250.03 141.352Z" fill="#10A133"/>
<path d="M245.809 107.801C243.092 107.801 240.377 107.725 237.664 107.571L237.179 107.544L237.243 107.061C237.642 104.041 237.417 100.972 236.582 98.0434C235.163 101.378 233.051 104.37 230.388 106.82L230.238 106.959L230.036 106.937C222.666 106.128 215.363 104.791 208.183 102.937L207.908 102.867L207.853 102.588C207.317 99.9454 207.04 97.2568 207.024 94.5603C207.024 86.1369 210.068 79.0472 215.595 74.5973C221.61 69.7535 230.233 68.2639 239.883 70.4003H270.741C274.134 70.4041 277.386 71.7581 279.785 74.1652C282.184 76.5724 283.533 79.836 283.537 83.2402V102.849L283.201 102.937C270.995 106.156 258.429 107.791 245.809 107.801Z" fill="#2F2E41"/>
<path d="M30.7035 72.6154C29.3221 73.1224 28.1975 74.1585 27.5765 75.4964C26.9554 76.8343 26.8887 78.3648 27.3908 79.7521L60.6805 171.41C61.1857 172.796 62.2182 173.925 63.5515 174.548C64.8848 175.171 66.4101 175.238 67.7926 174.734L196.996 127.485C198.377 126.978 199.502 125.942 200.123 124.604C200.744 123.266 200.81 121.736 200.308 120.348L167.019 28.6907C166.513 27.3045 165.481 26.176 164.148 25.5528C162.814 24.9295 161.289 24.8625 159.906 25.3663L30.7035 72.6154Z" fill="#CCCCCC"/>
<path d="M148.909 140.017L69.8232 168.939C68.3352 169.481 66.6936 169.409 65.2586 168.738C63.8236 168.067 62.7123 166.853 62.1686 165.361L31.9751 82.2278C31.4346 80.7347 31.5065 79.0874 32.1749 77.6474C32.8434 76.2074 34.0537 75.0923 35.5405 74.5467L157.442 29.9675C158.931 29.4252 160.572 29.4974 162.007 30.1681C163.442 30.8389 164.554 32.0535 165.097 33.5454L179.687 73.7144C184.351 86.6029 183.73 100.822 177.96 113.252C172.19 125.682 161.743 135.307 148.909 140.017V140.017Z" fill="white"/>
<path d="M92.0026 79.9607L73.2092 86.8334C72.9736 86.9196 72.7233 86.9583 72.4727 86.9475C72.222 86.9366 71.976 86.8763 71.7486 86.77C71.5212 86.6637 71.3169 86.5136 71.1474 86.3281C70.9779 86.1426 70.8464 85.9253 70.7605 85.6888C70.6746 85.4524 70.636 85.2012 70.6468 84.9497C70.6576 84.6983 70.7177 84.4514 70.8237 84.2232C70.9296 83.995 71.0792 83.7901 71.2641 83.6199C71.449 83.4498 71.6654 83.3179 71.9011 83.2317L90.6945 76.359C91.1705 76.1849 91.6959 76.2077 92.1551 76.4223C92.6143 76.637 92.9698 77.0259 93.1433 77.5035C93.3168 77.9811 93.294 78.5083 93.0801 78.9691C92.8662 79.4299 92.4786 79.7866 92.0027 79.9607H92.0026Z" fill="#10A133"/>
<path d="M136.806 71.92L75.8843 94.199C75.6485 94.2855 75.3981 94.3246 75.1473 94.3139C74.8964 94.3033 74.6502 94.2431 74.4225 94.1369C74.1949 94.0307 73.9904 93.8805 73.8206 93.6949C73.6509 93.5093 73.5193 93.2919 73.4333 93.0552C73.3474 92.8185 73.3088 92.5672 73.3197 92.3155C73.3306 92.0638 73.3909 91.8168 73.497 91.5885C73.6031 91.3602 73.7531 91.1552 73.9383 90.9851C74.1234 90.815 74.3402 90.6832 74.5762 90.5972L135.498 68.3182C135.734 68.232 135.984 68.1933 136.235 68.2041C136.485 68.215 136.731 68.2753 136.959 68.3816C137.186 68.4879 137.39 68.6381 137.56 68.8236C137.73 69.0091 137.861 69.2263 137.947 69.4628C138.033 69.6993 138.071 69.9504 138.061 70.2019C138.05 70.4534 137.99 70.7002 137.884 70.9284C137.778 71.1566 137.628 71.3616 137.443 71.5317C137.258 71.7018 137.042 71.8338 136.806 71.92V71.92Z" fill="#10A133"/>
<path d="M139.877 80.3746L78.9551 102.654C78.7194 102.74 78.4691 102.779 78.2185 102.768C77.9679 102.757 77.7219 102.697 77.4945 102.59C77.2671 102.484 77.0628 102.334 76.8933 102.148C76.7237 101.963 76.5922 101.746 76.5063 101.509C76.4204 101.273 76.3818 101.021 76.3927 100.77C76.4035 100.519 76.4636 100.272 76.5695 100.043C76.6754 99.8153 76.8251 99.6103 77.01 99.4402C77.1948 99.27 77.4113 99.1381 77.647 99.0519L138.569 76.7729C139.045 76.5996 139.57 76.6229 140.028 76.8376C140.487 77.0524 140.842 77.441 141.016 77.9183C141.189 78.3955 141.166 78.9223 140.953 79.3829C140.739 79.8434 140.353 80.2001 139.877 80.3746V80.3746Z" fill="#10A133"/>
<path d="M142.948 88.8293L82.0257 111.108C81.7899 111.195 81.5394 111.234 81.2886 111.223C81.0378 111.213 80.7915 111.153 80.5639 111.046C80.3363 110.94 80.1317 110.79 79.962 110.604C79.7923 110.419 79.6607 110.201 79.5747 109.965C79.4887 109.728 79.4501 109.477 79.461 109.225C79.472 108.973 79.5322 108.726 79.6384 108.498C79.7445 108.27 79.8944 108.065 80.0796 107.894C80.2648 107.724 80.4815 107.593 80.7175 107.507L141.64 85.2276C141.875 85.1414 142.126 85.1027 142.376 85.1135C142.627 85.1244 142.873 85.1847 143.1 85.291C143.328 85.3973 143.532 85.5475 143.701 85.733C143.871 85.9185 144.002 86.1357 144.088 86.3722C144.174 86.6087 144.213 86.8598 144.202 87.1113C144.191 87.3628 144.131 87.6096 144.025 87.8378C143.919 88.066 143.77 88.271 143.585 88.4411C143.4 88.6112 143.183 88.7432 142.948 88.8293V88.8293Z" fill="#10A133"/>
<path d="M146.019 97.284L85.0965 119.563C84.6205 119.737 84.0951 119.714 83.6358 119.5C83.1766 119.285 82.8212 118.896 82.6477 118.418C82.4742 117.941 82.497 117.414 82.7109 116.953C82.9248 116.492 83.3123 116.135 83.7883 115.961L144.71 93.6823C144.946 93.5961 145.196 93.5573 145.447 93.5682C145.698 93.5791 145.944 93.6394 146.171 93.7457C146.398 93.8519 146.603 94.0021 146.772 94.1876C146.942 94.3731 147.073 94.5904 147.159 94.8269C147.245 95.0634 147.284 95.3145 147.273 95.566C147.262 95.8174 147.202 96.0643 147.096 96.2925C146.99 96.5207 146.84 96.7256 146.656 96.8958C146.471 97.0659 146.254 97.1978 146.018 97.284H146.019Z" fill="#10A133"/>
<path d="M339.324 120.765L305.969 200.859C304.546 204.248 301.852 206.94 298.468 208.353C295.085 209.767 291.283 209.789 287.883 208.414C286.125 207.703 284.529 206.64 283.193 205.29C281.857 203.94 280.809 202.331 280.113 200.561C279.417 198.792 279.087 196.898 279.144 194.997C279.201 193.095 279.644 191.225 280.444 189.5L317.634 107.368L338.136 56.5053C336.364 54.7323 335.18 52.4551 334.743 49.983C334.306 47.5109 334.638 44.9637 335.694 42.6876C336.75 40.4115 338.479 38.5168 340.645 37.2609C342.812 36.005 345.311 35.4488 347.804 35.6679C350.296 35.8869 352.661 36.8706 354.577 38.4853C356.493 40.1 357.867 42.2674 358.513 44.693C359.159 47.1187 359.044 49.685 358.186 52.0432C357.327 54.4015 355.766 56.4374 353.715 57.8744L339.324 120.765Z" fill="#10A133"/>
</g>
<defs>
<clipPath id="clip0_85_262">
<rect width="425" height="484" fill="white" transform="translate(-11 -37)"/>
</clipPath>
</defs>
</svg>
